<?xml version="1.0" encoding="UTF-8"?>
<svg version="1.1" xmlns="http://www.w3.org/2000/svg" width="595" height="419">
<path d="M0 0 C1.47700882 -0.03355087 1.47700882 -0.03355087 2.9838562 -0.06777954 C4.04637604 -0.07425507 5.10889587 -0.08073059 6.20361328 -0.08740234 C7.29731232 -0.09975922 8.39101135 -0.11211609 9.51785278 -0.12484741 C11.83281088 -0.14442776 14.14785242 -0.15564822 16.46289062 -0.15917969 C20.00418074 -0.17326133 23.54193982 -0.24057749 27.08251953 -0.31005859 C29.33120174 -0.32245724 31.57990418 -0.33167676 33.82861328 -0.33740234 C35.41632034 -0.3774791 35.41632034 -0.3774791 37.03610229 -0.41836548 C44.19780276 -0.35220776 44.19780276 -0.35220776 46.88874817 1.92211914 C48.20043688 3.71006236 49.20196153 5.44978061 50.14892578 7.45166016 C50.54716553 8.1712793 50.94540527 8.89089844 51.35571289 9.63232422 C51.62649658 10.23786133 51.89728027 10.84339844 52.17626953 11.46728516 C52.64794556 12.50018677 52.64794556 12.50018677 53.12915039 13.55395508 C53.44505127 14.26269775 53.76095215 14.97144043 54.08642578 15.70166016 C56.80200647 21.66223373 59.67538292 27.41590258 63.02001953 33.05712891 C64.14892578 35.45166016 64.14892578 35.45166016 64.68408203 38.68994141 C64.83748047 39.60130859 64.99087891 40.51267578 65.14892578 41.45166016 C65.80892578 41.78166016 66.46892578 42.11166016 67.14892578 42.45166016 C68.22705078 44.43505859 68.22705078 44.43505859 69.39892578 47.06103516 C69.8372876 48.03258545 70.27564941 49.00413574 70.72729492 50.00512695 C71.19643311 51.05998291 71.66557129 52.11483887 72.14892578 53.20166016 C73.14634017 55.41187524 74.14506212 57.62150068 75.14501953 59.83056641 C75.64888184 60.9457666 76.15274414 62.0609668 76.671875 63.20996094 C78.79904453 67.87848276 80.99592045 72.51204017 83.21142578 77.13916016 C83.61941406 77.99219727 84.02740234 78.84523438 84.44775391 79.72412109 C85.26967411 81.44132406 86.09209972 83.15828521 86.91503906 84.875 C89.00063937 89.23024844 91.07417236 93.59123691 93.14892578 97.95166016 C95.69310975 103.29669798 98.23880706 108.64099916 100.78955078 113.98291016 C106.55139815 126.05484236 112.24075539 138.15229665 117.71533203 150.35791016 C118.85493589 152.81721876 120.03162585 155.24427221 121.23876953 157.67041016 C121.60502441 158.41774414 121.9712793 159.16507813 122.34863281 159.93505859 C123.07405118 161.412633 123.81023016 162.88498764 124.55859375 164.35107422 C126.76816097 168.88488106 127.64486435 172.29389906 127.14892578 177.45166016 C124.22556846 180.37501747 114.40780332 179.19239829 110.34912109 179.33447266 C108.06151621 179.41824214 105.77441274 179.51618784 103.48779297 179.62353516 C99.58341848 179.79658222 95.68070725 179.91056756 91.77392578 180.01416016 C90.50838867 180.07740479 89.24285156 180.14064941 87.93896484 180.20581055 C79.18406925 180.35612689 79.18406925 180.35612689 76.27880859 177.81762695 C74.94861932 175.74073784 74.01944345 173.75538649 73.14892578 171.45166016 C72.68486328 170.52740234 72.22080078 169.60314453 71.74267578 168.65087891 C71.20126953 167.40757812 71.20126953 167.40757812 70.64892578 166.13916016 C70.24287109 165.21619141 69.83681641 164.29322266 69.41845703 163.34228516 C68.99951172 162.38837891 68.58056641 161.43447266 68.14892578 160.45166016 C66.79174221 157.52163096 65.43150987 154.59307895 64.06689453 151.66650391 C63.14892578 149.45166016 63.14892578 149.45166016 63.14892578 147.45166016 C43.01892578 147.45166016 22.88892578 147.45166016 2.14892578 147.45166016 C5.44892578 153.72166016 8.74892578 159.99166016 12.14892578 166.45166016 C13.92197758 170.88428965 14.55447376 172.88924536 14.14892578 177.45166016 C11.66041904 179.94016689 10.18682518 179.69778346 6.78979492 179.72955322 C6.06268311 179.72550476 5.33557129 179.7214563 4.58642578 179.71728516 C3.8393335 179.71919861 3.09224121 179.72111206 2.32250977 179.7230835 C0.74218408 179.72444513 -0.8381528 179.72075015 -2.41845703 179.71240234 C-4.84156344 179.70170215 -7.26392845 179.71229795 -9.68701172 179.72509766 C-11.22086753 179.72377606 -12.75472287 179.72121366 -14.28857422 179.71728516 C-15.01568604 179.72133362 -15.74279785 179.72538208 -16.49194336 179.72955322 C-21.62115061 179.68158376 -21.62115061 179.68158376 -23.85107422 177.45166016 C-23.59588072 171.71588256 -22.23459724 167.4847548 -19.47607422 162.45166016 C-15.8599279 155.55357697 -12.56037447 148.54780431 -9.35107422 141.45166016 C-5.84862592 133.73357073 -2.26985601 126.07688895 1.60009766 118.53564453 C3.08869258 115.62685838 4.48427142 112.71163234 5.74267578 109.69775391 C7.17470258 106.39215871 8.68572584 104.06881009 11.14892578 101.45166016 C14.26036145 100.41451493 16.64360674 100.25134154 19.91064453 100.13525391 C21.02890625 100.09335938 22.14716797 100.05146484 23.29931641 100.00830078 C24.4665625 99.96898437 25.63380859 99.92966797 26.83642578 99.88916016 C28.01527344 99.84597656 29.19412109 99.80279297 30.40869141 99.75830078 C33.32198461 99.6521484 36.23536335 99.55009774 39.14892578 99.45166016 C36.77517983 93.45523154 34.36038404 87.48469119 31.77392578 81.57666016 C31.4779248 80.89829102 31.18192383 80.21992188 30.87695312 79.52099609 C28.53976504 74.21838377 25.99634195 69.04190073 23.31298828 63.90478516 C22.14892578 61.45166016 22.14892578 61.45166016 21.60986328 59.18603516 C21.45775391 58.61369141 21.30564453 58.04134766 21.14892578 57.45166016 C20.48892578 57.12166016 19.82892578 56.79166016 19.14892578 56.45166016 C19.05353516 57.12455078 18.95814453 57.79744141 18.85986328 58.49072266 C17.97268971 62.18565434 16.42634039 65.42799409 14.77392578 68.82666016 C14.42595947 69.5548999 14.07799316 70.28313965 13.71948242 71.03344727 C12.53518179 73.50905588 11.3425916 75.98055438 10.14892578 78.45166016 C8.29183687 82.30442671 6.43792194 86.15870289 4.58642578 90.01416016 C4.11229248 90.99980957 3.63815918 91.98545898 3.1496582 93.00097656 C0.50689301 98.52129713 -2.02494562 104.06726025 -4.41357422 109.70166016 C-7.32808091 116.56794993 -10.77492737 123.09686268 -14.29833984 129.66748047 C-17.00968325 134.75592051 -19.38550539 139.85770713 -21.51123047 145.22119141 C-23.32399499 149.59190937 -25.32926537 153.86185984 -27.35107422 158.13916016 C-27.71918213 158.92355469 -28.08729004 159.70794922 -28.46655273 160.51611328 C-30.35937195 164.5002904 -32.32027844 168.44674934 -34.38232422 172.34619141 C-34.759375 173.06266846 -35.13642578 173.77914551 -35.52490234 174.51733398 C-37.08259921 176.7893576 -38.52719312 177.97250315 -40.85107422 179.45166016 C-43.02700806 179.81915283 -43.02700806 179.81915283 -45.40429688 179.80810547 C-46.29847321 179.81110657 -47.19264954 179.81410767 -48.11392212 179.81719971 C-49.55002335 179.7986795 -49.55002335 179.7986795 -51.01513672 179.77978516 C-52.0035556 179.77791199 -52.99197449 179.77603882 -54.01034546 179.77410889 C-56.09661235 179.76739341 -58.18286676 179.75348896 -60.26904297 179.73291016 C-63.47098422 179.70170975 -66.6724334 179.69193398 -69.87451172 179.68603516 C-71.90055942 179.67686689 -73.92660209 179.66649168 -75.95263672 179.65478516 C-76.914086 179.65053528 -77.87553528 179.6462854 -78.86611938 179.64190674 C-79.75399139 179.63229919 -80.6418634 179.62269165 -81.55664062 179.61279297 C-82.73101181 179.60255096 -82.73101181 179.60255096 -83.92910767 179.59210205 C-85.85107422 179.45166016 -85.85107422 179.45166016 -87.85107422 178.45166016 C-88.42189553 171.6018044 -87.33614709 167.31253443 -83.85107422 161.45166016 C-83.01701643 159.96524177 -82.18637357 158.47690283 -81.35888672 156.98681641 C-80.93768555 156.2354541 -80.51648438 155.4840918 -80.08251953 154.70996094 C-78.15222638 151.17006965 -76.42734272 147.54345627 -74.72607422 143.88916016 C-74.39728271 143.18597656 -74.06849121 142.48279297 -73.72973633 141.75830078 C-71.83872668 137.67886147 -70.0302814 133.56986429 -68.26245117 129.43579102 C-65.29523871 122.50034791 -62.00317186 115.8633631 -58.40258789 109.2355957 C-54.75082817 102.43372124 -51.59469775 95.43505553 -48.43945312 88.39233398 C-45.68240059 82.24763218 -42.78673454 76.21886987 -39.73779297 70.21337891 C-32.2685277 55.42529083 -25.36647065 40.34406352 -18.44238281 25.29492188 C-15.89493592 19.77505192 -13.31504748 14.27221229 -10.65185547 8.80712891 C-10.18561768 7.84830811 -9.71937988 6.8894873 -9.23901367 5.90161133 C-6.75176183 1.51118525 -5.12100945 0.08540868 0 0 Z " fill="#88C963" transform="translate(331.85107421875,113.54833984375)"/>
<path d="M0 0 C1.08991241 -0.01427032 2.17982483 -0.02854065 3.30276489 -0.04324341 C5.60752349 -0.06416634 7.91243662 -0.07171437 10.21728516 -0.06689453 C13.73991279 -0.07029522 17.25578692 -0.14818248 20.77734375 -0.23046875 C23.01821125 -0.24154559 25.25910585 -0.24820175 27.5 -0.25 C28.55017303 -0.2807663 29.60034607 -0.31153259 30.68234253 -0.3432312 C37.83334512 -0.23130652 37.83334512 -0.23130652 40.86410522 2.76054382 C42.42085574 5.05294579 43.69850947 7.30203266 44.8828125 9.8046875 C45.41648437 10.91972656 45.95015625 12.03476563 46.5 13.18359375 C46.91507813 14.23417969 47.33015625 15.28476563 47.7578125 16.3671875 C49.95135603 21.69847702 52.33578278 26.85242653 54.9453125 31.9921875 C55.62379293 33.34109805 56.30218044 34.69005533 56.98046875 36.0390625 C58.14343875 38.34756667 59.31823197 40.64824714 60.50390625 42.9453125 C60.95894531 43.86828125 61.41398438 44.79125 61.8828125 45.7421875 C62.470625 46.90041016 62.470625 46.90041016 63.0703125 48.08203125 C65.2950505 55.53704272 63.75152514 61.39929516 60.2578125 68.1171875 C59.89316895 68.85428955 59.52852539 69.5913916 59.15283203 70.35083008 C58.07999499 72.51131975 56.98503367 74.65907157 55.8828125 76.8046875 C54.83964124 78.86642692 53.79778704 80.92883376 52.7578125 82.9921875 C52.27828125 83.93835938 51.79875 84.88453125 51.3046875 85.859375 C49.75488928 89.0696713 48.37726018 92.32609549 47.0078125 95.6171875 C44.9140519 100.59532142 42.6032084 105.32917324 40.0078125 110.0546875 C36.54209569 116.36840269 33.56706174 122.82717633 30.68774414 129.42651367 C24.04530766 144.64219234 24.04530766 144.64219234 21.8828125 146.8046875 C5.03598168 148.61239513 -12.1891153 148.35391 -29.1171875 148.8046875 C-29.42946289 149.53582764 -29.74173828 150.26696777 -30.06347656 151.02026367 C-31.49002899 154.34774208 -32.92846773 157.66995292 -34.3671875 160.9921875 C-34.85832031 162.14267578 -35.34945312 163.29316406 -35.85546875 164.47851562 C-36.33886719 165.59033203 -36.82226562 166.70214844 -37.3203125 167.84765625 C-37.76020508 168.86883545 -38.20009766 169.89001465 -38.65332031 170.94213867 C-40.76083642 175.06332386 -42.53443232 178.02061853 -46.76074219 180.11425781 C-51.17821323 181.0229433 -55.32636162 180.98372242 -59.8203125 180.8515625 C-61.19881378 180.82113861 -61.19881378 180.82113861 -62.60516357 180.7901001 C-64.53833799 180.74469341 -66.47139365 180.69395282 -68.40429688 180.63818359 C-71.37093508 180.55458189 -74.33747601 180.4929576 -77.3046875 180.43359375 C-79.18492895 180.38672679 -81.06513936 180.3385941 -82.9453125 180.2890625 C-83.83486633 180.27123718 -84.72442017 180.25341187 -85.64093018 180.23504639 C-86.87296173 180.19555878 -86.87296173 180.19555878 -88.12988281 180.15527344 C-88.85346985 180.13591736 -89.57705688 180.11656128 -90.3225708 180.09661865 C-92.1171875 179.8046875 -92.1171875 179.8046875 -94.1171875 177.8046875 C-93.89703841 171.33514502 -91.9169789 166.4768238 -89.0546875 160.7421875 C-88.65056641 159.91001709 -88.24644531 159.07784668 -87.83007812 158.22045898 C-85.07452369 152.59345727 -82.14436731 147.07365495 -79.13842773 141.57763672 C-75.92971564 135.62866075 -73.21217081 129.48003254 -70.48364258 123.29956055 C-68.06706424 117.84670136 -65.51483959 112.49237522 -62.8046875 107.1796875 C-60.7323034 103.11481725 -58.74114094 99.07377035 -57.1171875 94.8046875 C-55.2462637 89.90464898 -52.90281081 85.27508207 -50.53344727 80.60375977 C-43.56321193 66.82988929 -37.03116697 52.83252178 -30.5390625 38.828125 C-29.37713409 36.35743107 -28.17725254 33.92014101 -26.9296875 31.4921875 C-25.52388085 28.73395926 -24.35964322 25.9418282 -23.2421875 23.0546875 C-20.91530268 17.12754389 -18.25384414 11.34872811 -15.1171875 5.8046875 C-14.65425293 4.93932373 -14.19131836 4.07395996 -13.71435547 3.18237305 C-9.61920009 -0.56670744 -5.37205458 0.01236772 0 0 Z M12.8828125 55.8046875 C10.79225794 59.83474498 9.05946684 63.85274151 7.5078125 68.1171875 C6.02936804 72.03462266 4.50435858 75.69539056 2.3828125 79.3046875 C-1.51781081 85.95796586 -4.25009473 93.33631642 -6.1171875 100.8046875 C6.7528125 100.8046875 19.6228125 100.8046875 32.8828125 100.8046875 C32.2244941 94.21076355 32.2244941 94.21076355 30.24609375 88.5078125 C29.75532349 87.41980347 29.75532349 87.41980347 29.25463867 86.30981445 C28.90506104 85.56562256 28.5554834 84.82143066 28.1953125 84.0546875 C27.83735596 83.2711792 27.47939941 82.4876709 27.1105957 81.68041992 C24.57189386 76.16320101 21.89781747 70.71793974 19.13671875 65.30859375 C17.57537299 62.19076623 16.20270003 59.03107923 14.8828125 55.8046875 C14.2228125 55.8046875 13.5628125 55.8046875 12.8828125 55.8046875 Z " fill="#88C962" transform="translate(223.1171875,113.1953125)"/>
<path d="M0 0 C16.17 0 32.34 0 49 0 C49 0.66 49 1.32 49 2 C33.16 2.33 17.32 2.66 1 3 C0.67 2.01 0.34 1.02 0 0 Z " fill="#98C976" transform="translate(211,115)"/>
<path d="M0 0 C1.76463921 3.52927842 1.12459818 6.50160726 0.1875 10.25 C-0.204375 11.1575 -0.59625 12.065 -1 13 C-1.99 13.33 -2.98 13.66 -4 14 C-5.01754868 15.8653245 -5.01754868 15.8653245 -5.6875 18.0625 C-5.93886719 18.79597656 -6.19023437 19.52945313 -6.44921875 20.28515625 C-6.63097656 20.85105469 -6.81273437 21.41695312 -7 22 C-7.66 22 -8.32 22 -9 22 C-8.87625 23.8871875 -8.87625 23.8871875 -8.75 25.8125 C-8.7421875 28.04296875 -8.7421875 28.04296875 -9 30 C-10.875 31.625 -10.875 31.625 -13 33 C-13.67863055 34.9959722 -14.34641919 36.99568551 -15 39 C-16.485 39.495 -16.485 39.495 -18 40 C-12.61633456 26.40182156 -6.58793107 13.05644344 0 0 Z " fill="#6B8D50" transform="translate(207,121)"/>
<path d="M0 0 C0.66 0.33 1.32 0.66 2 1 C1.57388649 2.75280733 1.13360733 4.50217435 0.6875 6.25 C0.44386719 7.22453125 0.20023437 8.1990625 -0.05078125 9.203125 C-1.00385077 12.01134631 -2.15879416 13.71214045 -4 16 C-4.28875 16.845625 -4.5775 17.69125 -4.875 18.5625 C-6.30823489 21.66784227 -7.9958392 22.4979196 -11 24 C-9.59046971 18.16826206 -7.2521961 13.30888727 -4.375 8.0625 C-3.95476562 7.28326172 -3.53453125 6.50402344 -3.1015625 5.70117188 C-2.07380186 3.79747888 -1.03774787 1.89826719 0 0 Z " fill="#7EA95E" transform="translate(281,208)"/>
<path d="M0 0 C0.66 0.66 1.32 1.32 2 2 C5.07696796 2.29570855 5.07696796 2.29570855 8.6875 2.23046875 C9.34580811 2.23001053 10.00411621 2.22955231 10.68237305 2.2290802 C12.07439984 2.22605881 13.46642328 2.21817581 14.85839844 2.20581055 C16.99165803 2.18757132 19.12448313 2.18530076 21.2578125 2.18554688 C27.82742306 2.54469066 27.82742306 2.54469066 34 1 C34 2.32 34 3.64 34 5 C22.78 5 11.56 5 0 5 C0 3.35 0 1.7 0 0 Z " fill="#739757" transform="translate(310,288)"/>
<path d="M0 0 C0.66 0 1.32 0 2 0 C2.495 1.485 2.495 1.485 3 3 C2.34 3.66 1.68 4.32 1 5 C1 4.34 1 3.68 1 3 C-19.13 3 -39.26 3 -60 3 C-60.33 3.66 -60.66 4.32 -61 5 C-61.33 4.01 -61.66 3.02 -62 2 C-31.31 1.505 -31.31 1.505 0 1 C0 0.67 0 0.34 0 0 Z " fill="#608643" transform="translate(394,258)"/>
<path d="M0 0 C0.495 0.99 0.495 0.99 1 2 C-1.94697895 6.30712308 -3.94545997 7.77697736 -9 9 C-12.19431242 9.19555512 -15.35834006 9.09541664 -18.5546875 8.9765625 C-19.45623566 8.95153656 -20.35778381 8.92651062 -21.28665161 8.90072632 C-24.14984029 8.81893334 -27.01229666 8.72218758 -29.875 8.625 C-31.82288731 8.5667188 -33.77080417 8.50941645 -35.71875 8.453125 C-40.47958346 8.3134154 -45.23981711 8.16029898 -50 8 C-50 7.67 -50 7.34 -50 7 C-48.84999512 6.97494385 -47.69999023 6.9498877 -46.51513672 6.92407227 C-42.23231627 6.82961786 -37.94964368 6.72949124 -33.66699219 6.62768555 C-31.81644154 6.58448014 -29.96585471 6.54279542 -28.11523438 6.50268555 C-25.44910806 6.4446328 -22.7831614 6.38104076 -20.1171875 6.31640625 C-19.29507782 6.29969376 -18.47296814 6.28298126 -17.62594604 6.26576233 C-9.22627182 6.30445501 -9.22627182 6.30445501 -2.125 2.4375 C-1.073125 1.2309375 -1.073125 1.2309375 0 0 Z " fill="#57773E" transform="translate(182,285)"/>
<path d="M0 0 C2.0453008 5.11325199 -0.56410483 10.06489313 -2.5 14.875 C-4 18 -4 18 -6 19 C-6.33 19.99 -6.66 20.98 -7 22 C-7.99 22.33 -8.98 22.66 -10 23 C-8.52738263 16.84178192 -5.92196939 11.59584704 -3 6 C-2.39296716 4.79310401 -1.78823148 3.58504483 -1.1875 2.375 C-0.795625 1.59125 -0.40375 0.8075 0 0 Z " fill="#7EAB5A" transform="translate(170,200)"/>
<path d="M0 0 C0.99 0 1.98 0 3 0 C3.51326523 5.38928493 2.06999794 7.66588526 -1 12 C-2.24324147 15.2249208 -2.24324147 15.2249208 -3 18 C-4.65 18.33 -6.3 18.66 -8 19 C-6.60121198 14.53202662 -4.86369228 10.36177921 -2.875 6.125 C-2.33617187 4.97257813 -1.79734375 3.82015625 -1.2421875 2.6328125 C-0.62730469 1.32957031 -0.62730469 1.32957031 0 0 Z " fill="#729C53" transform="translate(314,137)"/>
<path d="M0 0 C1 2 1 2 0.375 4.5 C-1.45460579 9.15717838 -3.70655721 13.55695404 -6 18 C-6.33 18.66 -6.66 19.32 -7 20 C-7.66 20 -8.32 20 -9 20 C-9.26450133 16.04640112 -8.67764167 13.86965454 -6.625 10.5 C-5.139653 7.98955436 -3.8898179 5.72164523 -2.8125 3 C-2 1 -2 1 0 0 Z " fill="#779F5A" transform="translate(340,221)"/>
<path d="M0 0 C0.33 0 0.66 0 1 0 C0.48377778 6.10453258 -1.48582596 10.91478414 -4.0625 16.4375 C-4.43955078 17.26443359 -4.81660156 18.09136719 -5.20507812 18.94335938 C-6.12874358 20.96606979 -7.06046954 22.98462257 -8 25 C-8.33 24.34 -8.66 23.68 -9 23 C-9.99 22.67 -10.98 22.34 -12 22 C-11.34 21.67 -10.68 21.34 -10 21 C-9.34 21.33 -8.68 21.66 -8 22 C-7.67 19.69 -7.34 17.38 -7 15 C-6.34 15 -5.68 15 -5 15 C-5.061875 13.88625 -5.061875 13.88625 -5.125 12.75 C-4.99044612 9.78981468 -4.45901518 8.534079 -3 6 C-2.46375 4.9275 -1.9275 3.855 -1.375 2.75 C-0.92125 1.8425 -0.4675 0.935 0 0 Z " fill="#749D54" transform="translate(192,260)"/>
<path d="M0 0 C0.66 0 1.32 0 2 0 C-0.23313726 7.44379088 -3.40272079 14.11976695 -7 21 C-7.33 21 -7.66 21 -8 21 C-8.29347784 17.94783043 -8.44357548 15.04166046 -8 12 C-5.5625 9.75 -5.5625 9.75 -3 8 C-2.12056596 5.36539052 -2.12056596 5.36539052 -2 3 C-1.34 3 -0.68 3 0 3 C0 2.01 0 1.02 0 0 Z " fill="#6F984D" transform="translate(307,260)"/>
<path d="M0 0 C0.99 0 1.98 0 3 0 C1.56835889 3.65938172 0.01065704 7.23988068 -1.625 10.8125 C-2.29402344 12.27623047 -2.29402344 12.27623047 -2.9765625 13.76953125 C-3.31429688 14.50558594 -3.65203125 15.24164063 -4 16 C-4.33 16 -4.66 16 -5 16 C-4.55643705 9.79011871 -3.08467498 5.39459439 0 0 Z " fill="#7EA460" transform="translate(337,195)"/>
<path d="M0 0 C2.31 0.33 4.62 0.66 7 1 C5.06273348 5.58826282 3.51135667 7.80528594 -1 10 C-0.67 8.35 -0.34 6.7 0 5 C-0.66 5 -1.32 5 -2 5 C-1.34 3.35 -0.68 1.7 0 0 Z " fill="#85BF5C" transform="translate(210,116)"/>
<path d="M0 0 C0.75 1.5625 0.75 1.5625 1 4 C-0.13084437 6.50286409 -1.52139516 8.67007722 -3 11 C-3.66 11 -4.32 11 -5 11 C-5.33 11.99 -5.66 12.98 -6 14 C-6.3477072 9.13209925 -5.554836 6.16343644 -3 2 C-2.01 1.34 -1.02 0.68 0 0 Z " fill="#7EA85B" transform="translate(302,167)"/>
<path d="M0 0 C0.99 0 1.98 0 3 0 C1.44191344 9.59453303 1.44191344 9.59453303 -3 13 C-3.38281159 7.76824163 -2.21854707 4.62197306 0 0 Z " fill="#7BA95A" transform="translate(323,118)"/>
<path d="M0 0 C-2.89066059 9.59453303 -2.89066059 9.59453303 -6 13 C-6.62645012 4.85614849 -6.62645012 4.85614849 -4.125 1.4375 C-2 0 -2 0 0 0 Z " fill="#7DAB5B" transform="translate(330,215)"/>
<path d="M0 0 C4.13767263 4.43322068 5.95528874 9.39879629 8 15 C7.34 15 6.68 15 6 15 C1.6901139 10.42074602 0 6.27018628 0 0 Z " fill="#739C51" transform="translate(263,116)"/>
<path d="M0 0 C0.99 1.32 1.98 2.64 3 4 C2.071875 4.556875 2.071875 4.556875 1.125 5.125 C-1.5510596 7.48622906 -2.0936844 9.60131652 -3 13 C-2.34 13.33 -1.68 13.66 -1 14 C-1.99 14 -2.98 14 -4 14 C-4 14.66 -4 15.32 -4 16 C-4.99 16.33 -5.98 16.66 -7 17 C-5.49637741 13.21283842 -3.94512999 9.44754813 -2.375 5.6875 C-1.92898438 4.61886719 -1.48296875 3.55023438 -1.0234375 2.44921875 C-0.68570312 1.64097656 -0.34796875 0.83273438 0 0 Z " fill="#6A904F" transform="translate(265,240)"/>
<path d="M0 0 C1.80202928 3.60405855 1.14003119 6.53614669 0 10.3125 C-0.33 11.199375 -0.66 12.08625 -1 13 C-1.99 13 -2.98 13 -4 13 C-3.50269348 8.02693484 -2.44697666 4.36200187 0 0 Z " fill="#7AA45B" transform="translate(207,121)"/>
<path d="M0 0 C0.99 1.32 1.98 2.64 3 4 C2.34 4.66 1.68 5.32 1 6 C0.01 6 -0.98 6 -2 6 C-2.33 8.64 -2.66 11.28 -3 14 C-3.66 14 -4.32 14 -5 14 C-6.04449911 10.86650268 -5.93423645 10.01031744 -5 7 C-4.34 7 -3.68 7 -3 7 C-2.87625 6.401875 -2.7525 5.80375 -2.625 5.1875 C-2 3 -2 3 0 0 Z " fill="#93C96A" transform="translate(291,191)"/>
<path d="M0 0 C0.66 0.99 1.32 1.98 2 3 C1.125 5.6875 1.125 5.6875 0 8 C-0.66 8 -1.32 8 -2 8 C-1.67 8.99 -1.34 9.98 -1 11 C-2.32 11.33 -3.64 11.66 -5 12 C-4.42365861 7.24518354 -2.44931479 4.02951788 0 0 Z " fill="#799F59" transform="translate(256,260)"/>
<path d="M0 0 C0.66 0.33 1.32 0.66 2 1 C1.46515599 6.34844008 -0.46690767 10.35796103 -3 15 C-3.99 13.68 -4.98 12.36 -6 11 C-5.01 11 -4.02 11 -3 11 C-3 10.34 -3 9.68 -3 9 C-2.34 9 -1.68 9 -1 9 C-0.67 6.03 -0.34 3.06 0 0 Z " fill="#749D57" transform="translate(231,174)"/>
<path d="M0 0 C2 0 2 0 3.51953125 1.20703125 C5.24891482 3.3014562 5.89911873 5.09710438 6.6875 7.6875 C6.93886719 8.49574219 7.19023437 9.30398437 7.44921875 10.13671875 C7.63097656 10.75160156 7.81273437 11.36648437 8 12 C7.34 12.66 6.68 13.32 6 14 C4.99770632 11.85521084 3.99807145 9.70925278 3 7.5625 C2.1646875 5.77005859 2.1646875 5.77005859 1.3125 3.94140625 C0 1 0 1 0 0 Z " fill="#6B9751" transform="translate(246,187)"/>
<path d="M0 0 C1.56073255 2.34109882 2.86373867 4.56333403 4.125 7.0625 C4.47820312 7.75472656 4.83140625 8.44695312 5.1953125 9.16015625 C6 11 6 11 6 13 C4.125 12.875 4.125 12.875 2 12 C0.11301833 7.94298942 -0.21117043 4.43457902 0 0 Z " fill="#77A155" transform="translate(405,171)"/>
<path d="M0 0 C1.86718689 2.80078034 3.54204238 5.62725376 5.1875 8.5625 C5.73792969 9.53316406 6.28835938 10.50382813 6.85546875 11.50390625 C7.23316406 12.32761719 7.61085938 13.15132812 8 14 C7.67 14.66 7.34 15.32 7 16 C5 14.8125 5 14.8125 3 13 C2.75 10.3125 2.75 10.3125 3 8 C2.34 8 1.68 8 1 8 C0.67 5.36 0.34 2.72 0 0 Z " fill="#6C8F50" transform="translate(271,132)"/>
<path d="M0 0 C2.74792483 3.40219265 6 7.48464588 6 12 C5.01 12 4.02 12 3 12 C-0.19703098 8.09251769 -0.28999491 4.92991345 0 0 Z " fill="#77A453" transform="translate(338,270)"/>
<path d="M0 0 C0.9203899 3.10631593 1.56280301 5.78398281 1 9 C-2 11.3125 -2 11.3125 -5 13 C-3.78184562 8.31479085 -2.30440013 4.29456388 0 0 Z " fill="#6B8F4D" transform="translate(275,219)"/>
<path d="M0 0 C4.75 0.75 4.75 0.75 7 3 C6.34 3 5.68 3 5 3 C4.67 4.32 4.34 5.64 4 7 C3.87625 6.360625 3.7525 5.72125 3.625 5.0625 C3.41875 4.381875 3.2125 3.70125 3 3 C2.34 2.67 1.68 2.34 1 2 C0.87625 2.78375 0.7525 3.5675 0.625 4.375 C0 7 0 7 -2 9 C-2.33 7.35 -2.66 5.7 -3 4 C-2.34 3.67 -1.68 3.34 -1 3 C-0.67 2.01 -0.34 1.02 0 0 Z " fill="#6E994F" transform="translate(350,168)"/>
<path d="M0 0 C0 3.55157911 -0.99418238 5.48763755 -2.5 8.6875 C-3.19609375 10.17830078 -3.19609375 10.17830078 -3.90625 11.69921875 C-4.2671875 12.45847656 -4.628125 13.21773437 -5 14 C-5.82638376 11.10765685 -6 9.11257569 -6 6 C-4.68 5.67 -3.36 5.34 -2 5 C-2.33 3.68 -2.66 2.36 -3 1 C-2.01 0.67 -1.02 0.34 0 0 Z " fill="#628646" transform="translate(318,239)"/>
<path d="M0 0 C1.4783226 2.95664519 1.06032783 5.74229737 1 9 C2.65 9 4.3 9 6 9 C6 9.33 6 9.66 6 10 C3.36 10 0.72 10 -2 10 C-2 7.03 -2 4.06 -2 1 C-1.34 0.67 -0.68 0.34 0 0 Z " fill="#7AA35B" transform="translate(246,282)"/>
<path d="M0 0 C1.98 0 3.96 0 6 0 C6 1.98 6 3.96 6 6 C5.34 4.68 4.68 3.36 4 2 C1.9754262 3.93254772 0.57894208 5.63158688 -1 8 C-1.125 2.25 -1.125 2.25 0 0 Z " fill="#669049" transform="translate(234,167)"/>
<path d="M0 0 C2.69504819 2.69504819 5 6.08360477 5 10 C4.01 10 3.02 10 2 10 C2 9.34 2 8.68 2 8 C1.01 7.67 0.02 7.34 -1 7 C-0.67 4.69 -0.34 2.38 0 0 Z " fill="#759E54" transform="translate(411,184)"/>
<path d="M0 0 C0.66 0.33 1.32 0.66 2 1 C0.7874262 4.72433382 -0.50859979 8.37802806 -2 12 C-2.33 12 -2.66 12 -3 12 C-3 9.36 -3 6.72 -3 4 C-2.34 4 -1.68 4 -1 4 C-0.67 2.68 -0.34 1.36 0 0 Z " fill="#6F9A4F" transform="translate(270,202)"/>
<path d="M0 0 C2.7710688 2.34591852 3.52059284 4.14776201 4.1875 7.6875 C4.34605469 8.49574219 4.50460937 9.30398437 4.66796875 10.13671875 C4.77753906 10.75160156 4.88710938 11.36648437 5 12 C4.34 12 3.68 12 3 12 C2.87625 11.195625 2.7525 10.39125 2.625 9.5625 C2.315625 8.2940625 2.315625 8.2940625 2 7 C1.34 6.67 0.68 6.34 0 6 C-0.6875 3.5 -0.6875 3.5 -1 1 C-0.67 0.67 -0.34 0.34 0 0 Z " fill="#729754" transform="translate(392,144)"/>
<path d="M0 0 C0.33 1.32 0.66 2.64 1 4 C1.66 4 2.32 4 3 4 C2.67 5.32 2.34 6.64 2 8 C0.35 8 -1.3 8 -3 8 C-2.690625 7.236875 -2.38125 6.47375 -2.0625 5.6875 C-1.32106407 3.81210323 -0.63771783 1.91315348 0 0 Z " fill="#76A652" transform="translate(148,246)"/>
<path d="M0 0 C3.6 5.4 3.6 5.4 5 8 C4.67 8.66 4.34 9.32 4 10 C3.34 9.67 2.68 9.34 2 9 C2 8.01 2 7.02 2 6 C1.01 6.33 0.02 6.66 -1 7 C-1.04254356 5.00045254 -1.04080783 2.99958364 -1 1 C-0.67 0.67 -0.34 0.34 0 0 Z " fill="#789B56" transform="translate(429,222)"/>
<path d="M0 0 C0.99 0 1.98 0 3 0 C4.80230168 3.82989106 5.19622241 6.78121808 5 11 C2.03947516 7.63576723 1.07710178 4.30840713 0 0 Z " fill="#698C4E" transform="translate(363,192)"/>
<path d="M0 0 C0 3.19610552 -0.54671542 4.41717626 -2 7.1875 C-2.37125 7.90292969 -2.7425 8.61835938 -3.125 9.35546875 C-3.41375 9.89816406 -3.7025 10.44085938 -4 11 C-4.33 11 -4.66 11 -5 11 C-5 9.02 -5 7.04 -5 5 C-4.34 5 -3.68 5 -3 5 C-3 4.01 -3 3.02 -3 2 C-2.01 1.34 -1.02 0.68 0 0 Z " fill="#6A994F" transform="translate(266,214)"/>
<path d="M0 0 C0.33 0 0.66 0 1 0 C1.37952295 6.19887485 0.8352113 10.4477112 -2 16 C-2.33 16 -2.66 16 -3 16 C-3 14.02 -3 12.04 -3 10 C-2.34 10 -1.68 10 -1 10 C-0.67 6.7 -0.34 3.4 0 0 Z " fill="#557441" transform="translate(286,164)"/>
<path d="M0 0 C0.99 0 1.98 0 3 0 C1.52307692 4.67692308 1.52307692 4.67692308 -1.125 6.3125 C-2.053125 6.6528125 -2.053125 6.6528125 -3 7 C-3 6.01 -3 5.02 -3 4 C-2.34 4 -1.68 4 -1 4 C-0.67 2.68 -0.34 1.36 0 0 Z " fill="#739D5A" transform="translate(294,285)"/>
<path d="M0 0 C2.74792483 3.40219265 6 7.48464588 6 12 C5.01 12 4.02 12 3 12 C3 10.35 3 8.7 3 7 C2.34 7 1.68 7 1 7 C0.67 4.69 0.34 2.38 0 0 Z " fill="#698B4C" transform="translate(450,267)"/>
<path d="M0 0 C0.66 0.99 1.32 1.98 2 3 C1.0409375 4.1446875 1.0409375 4.1446875 0.0625 5.3125 C-2.14232781 7.88246713 -2.14232781 7.88246713 -3 11 C-3.66 11 -4.32 11 -5 11 C-3.55049545 7.2089881 -1.84827434 3.6125362 0 0 Z " fill="#678846" transform="translate(291,187)"/>
<path d="M0 0 C0.66 0.33 1.32 0.66 2 1 C1.32829194 4.8063457 0.27253436 8.35206816 -1 12 C-2.04005702 8.61981469 -2.08004482 5.5219721 -2 2 C-1.34 2 -0.68 2 0 2 C0 1.34 0 0.68 0 0 Z " fill="#6D8F4D" transform="translate(222,193)"/>
<path d="M0 0 C0.66 0 1.32 0 2 0 C2.33 0.99 2.66 1.98 3 3 C1.5625 5.6875 1.5625 5.6875 0 8 C-0.99 7.34 -1.98 6.68 -3 6 C-2.34 6 -1.68 6 -1 6 C-0.67 4.02 -0.34 2.04 0 0 Z " fill="#7FAF5F" transform="translate(272,195)"/>
<path d="M0 0 C0.66 0 1.32 0 2 0 C5 5.75 5 5.75 5 8 C3.0625 7.375 3.0625 7.375 1 6 C0.25 2.875 0.25 2.875 0 0 Z " fill="#6F9152" transform="translate(387,135)"/>
<path d="M0 0 C2.0625 2.1875 2.0625 2.1875 4 5 C3.75 7.8125 3.75 7.8125 3 10 C0.70366176 6.55549263 0.45983515 4.06187717 0 0 Z " fill="#779F5B" transform="translate(378,116)"/>
<path d="M0 0 C0.99 0.33 1.98 0.66 3 1 C3 2.98 3 4.96 3 7 C2.01 7.495 2.01 7.495 1 8 C0.67 5.36 0.34 2.72 0 0 Z " fill="#759B57" transform="translate(343,284)"/>
<path d="M0 0 C0.66 0 1.32 0 2 0 C2.33 0.99 2.66 1.98 3 3 C2.34 3.66 1.68 4.32 1 5 C1 4.34 1 3.68 1 3 C-2.96 3 -6.92 3 -11 3 C-11 2.67 -11 2.34 -11 2 C-5.555 1.505 -5.555 1.505 0 1 C0 0.67 0 0.34 0 0 Z " fill="#688F47" transform="translate(394,258)"/>
<path d="M0 0 C1.0326802 2.78823655 1.04509293 3.8677274 0.0625 6.75 C-0.288125 7.4925 -0.63875 8.235 -1 9 C-1.66 8.67 -2.32 8.34 -3 8 C-1.125 1.125 -1.125 1.125 0 0 Z " fill="#6D9151" transform="translate(170,200)"/>
<path d="M0 0 C1.95582488 2.93373731 3.56224304 5.78216298 5 9 C4.67 9.66 4.34 10.32 4 11 C1.9656541 9.58480285 1.09589607 8.45017877 0.578125 6.01953125 C0.33726048 4.01823046 0.16467259 2.0090056 0 0 Z " fill="#64884C" transform="translate(281,153)"/>
<path d="M0 0 C0.66 1.32 1.32 2.64 2 4 C0.69593116 6.01920337 -0.63823419 8.01924973 -2 10 C-2.33 10 -2.66 10 -3 10 C-3 8.35 -3 6.7 -3 5 C-2.01 4.67 -1.02 4.34 0 4 C0 2.68 0 1.36 0 0 Z " fill="#95C86D" transform="translate(309,151)"/>
<path d="M0 0 C0.6875 1.8125 0.6875 1.8125 1 4 C-0.3125 5.75 -0.3125 5.75 -2 7 C-2.66 7 -3.32 7 -4 7 C-3.39816251 4.97954558 -2.72693904 2.97888961 -2 1 C-1.34 0.67 -0.68 0.34 0 0 Z " fill="#7DA75D" transform="translate(315,274)"/>
<path d="M0 0 C0.99 0 1.98 0 3 0 C1.87548273 2.9719385 0.77706209 5.33440687 -1 8 C-1.125 2.25 -1.125 2.25 0 0 Z " fill="#6A8C50" transform="translate(337,195)"/>
</svg>
